# xmcd CD database file
#
# Track frame offsets:
#	150
#	34505
#	67727
#	92995
#	118997
#	145822
#	187797
#
# Disc length: 2842 seconds
#
# Revision: 0
# Processed by: cddbd v1.5.2PL0 Copyright (c) Steve Scherf et al.
# Submitted via: CDex 1.51
#
DISCID=570b1807
DTITLE=Michalis Bernardakis - Oia
DYEAR=1995
DGENRE=Jazz
TTITLE0=Sifnos
TTITLE1=Hina Ton pagon
TTITLE2=Andrei
TTITLE3=Stoiheio Tis Pistis
TTITLE4=Elpida Gia Aionia Zoi
TTITLE5=Intra
TTITLE6=Oia
EXTD=YEAR: 1995
EXTT0=
EXTT1=
EXTT2=
EXTT3=
EXTT4=
EXTT5=
EXTT6=
PLAYORDER=
